<svg width="24" height="24" viewBox="0 0 24 24" fill="none" xmlns="http://www.w3.org/2000/svg">
<path d="M17.7252 3V4.9M6.3252 3V4.9" stroke="#5A6684" stroke-width="1.5" stroke-linecap="round" stroke-linejoin="round"/>
<path d="M12.0208 13.45H12.0294M12.0208 17.25H12.0294M15.8166 13.45H15.8251M8.2251 13.45H8.23362M8.2251 17.25H8.23362" stroke="#5A6684" stroke-width="1.5" stroke-linecap="round" stroke-linejoin="round"/>
<path d="M3.9502 8.70001H20.1002" stroke="#5A6684" stroke-width="1.5" stroke-linecap="round" stroke-linejoin="round"/>
<path d="M3 12.7311C3 8.59165 3 6.52193 4.18951 5.23597C5.37903 3.95001 7.29352 3.95001 11.1225 3.95001H12.9275C16.7565 3.95001 18.671 3.95001 19.8605 5.23597C21.05 6.52193 21.05 8.59165 21.05 12.7311V13.2189C21.05 17.3584 21.05 19.4281 19.8605 20.7141C18.671 22 16.7565 22 12.9275 22H11.1225C7.29352 22 5.37903 22 4.18951 20.7141C3 19.4281 3 17.3584 3 13.2189V12.7311Z" stroke="#5A6684" stroke-width="1.5" stroke-linecap="round" stroke-linejoin="round"/>
<path d="M3.4751 8.70001H20.5751" stroke="#5A6684" stroke-width="1.5" stroke-linecap="round" stroke-linejoin="round"/>
</svg>
