<svg width="24" height="24" viewBox="0 0 24 24" fill="none" xmlns="http://www.w3.org/2000/svg">
<path d="M10 7.0268C10.483 4.17323 12.9665 2 15.9575 2C19.2947 2 22 4.70532 22 8.0425C22 11.0335 19.8268 13.517 16.9732 14" stroke="black" stroke-width="1.5" stroke-linecap="round" stroke-linejoin="round"/>
<path d="M8 22C11.3137 22 14 19.3137 14 16C14 12.6863 11.3137 10 8 10C4.68629 10 2 12.6863 2 16C2 19.3137 4.68629 22 8 22Z" stroke="black" stroke-width="1.5" stroke-linecap="round" stroke-linejoin="round"/>
<path d="M7.857 13.75C7.14692 13.75 6.57129 14.2537 6.57129 14.875C6.57129 15.4963 7.14692 16 7.857 16C8.56708 16 9.14272 16.5037 9.14272 17.125C9.14272 17.7463 8.56708 18.25 7.857 18.25M7.857 13.75C8.41681 13.75 8.89306 14.0631 9.06956 14.5M7.857 13.75V13M7.857 18.25C7.2972 18.25 6.82095 17.9369 6.64445 17.5M7.857 18.25V19" stroke="black" stroke-width="1.5" stroke-linecap="round"/>
<path d="M16.2857 5.75C15.5756 5.75 15 6.25368 15 6.875C15 7.49632 15.5756 8 16.2857 8C16.9958 8 17.5714 8.50368 17.5714 9.125C17.5714 9.74632 16.9958 10.25 16.2857 10.25M16.2857 5.75C16.8455 5.75 17.3218 6.06305 17.4983 6.5M16.2857 5.75V5M16.2857 10.25C15.7259 10.25 15.2497 9.93695 15.0732 9.5M16.2857 10.25V11" stroke="black" stroke-width="1.5" stroke-linecap="round"/>
<path d="M2 9C2 5.68286 4.68286 3 8 3L7.14286 4.71429" stroke="black" stroke-width="1.5" stroke-linecap="round" stroke-linejoin="round"/>
<path d="M22 15C22 18.3171 19.3171 21 16 21L16.8571 19.2857" stroke="black" stroke-width="1.5" stroke-linecap="round" stroke-linejoin="round"/>
</svg>
